<?xml version="1.0" standalone="no"?>
<!DOCTYPE svg PUBLIC "-//W3C//DTD SVG 20010904//EN"
 "http://www.w3.org/TR/2001/REC-SVG-20010904/DTD/svg10.dtd">
<svg version="1.0" xmlns="http://www.w3.org/2000/svg"
 width="64.000000pt" height="64.000000pt" viewBox="0 0 64.000000 64.000000"
 preserveAspectRatio="xMidYMid meet">
<metadata>
Created by potrace 1.16, written by Peter Selinger 2001-2019
</metadata>
<g transform="translate(0.000000,64.000000) scale(0.100000,-0.100000)"
fill="#000000" stroke="none">
<path d="M150 540 c0 -11 -7 -20 -15 -20 -8 0 -15 -7 -15 -15 0 -8 -9 -15 -20
-15 -11 0 -20 -7 -20 -15 0 -8 9 -15 20 -15 17 0 20 -7 20 -45 0 -38 -3 -45
-20 -45 -11 0 -20 -7 -20 -15 0 -8 9 -15 20 -15 17 0 20 -7 20 -45 0 -38 -3
-45 -20 -45 -11 0 -20 -7 -20 -15 0 -8 9 -15 20 -15 17 0 20 -7 20 -45 0 -38
-3 -45 -20 -45 -12 0 -20 -7 -20 -16 0 -13 7 -15 35 -11 30 5 35 3 35 -14 0
-10 7 -19 15 -19 8 0 15 9 15 20 0 17 7 20 45 20 38 0 45 -3 45 -20 0 -11 7
-20 15 -20 8 0 15 9 15 20 0 17 7 20 45 20 38 0 45 -3 45 -20 0 -11 7 -20 15
-20 8 0 15 9 15 20 0 17 7 20 45 20 38 0 45 -3 45 -20 0 -11 7 -20 15 -20 8 0
15 7 15 15 0 8 7 15 15 15 8 0 15 7 15 15 0 8 -9 15 -20 15 -17 0 -20 7 -20
45 0 38 3 45 20 45 11 0 20 7 20 15 0 8 -9 15 -20 15 -17 0 -20 7 -20 45 0 38
3 45 20 45 11 0 20 7 20 15 0 8 -9 15 -20 15 -17 0 -20 7 -20 45 0 38 3 45 20
45 11 0 20 7 20 15 0 8 -9 15 -19 15 -17 0 -19 5 -14 35 4 28 2 35 -11 35 -9
0 -16 -8 -16 -20 0 -17 -7 -20 -45 -20 -38 0 -45 3 -45 20 0 11 -7 20 -15 20
-8 0 -15 -9 -15 -20 0 -17 -7 -20 -45 -20 -38 0 -45 3 -45 20 0 11 -7 20 -15
20 -8 0 -15 -9 -15 -20 0 -17 -7 -20 -45 -20 -38 0 -45 3 -45 20 0 11 -7 20
-15 20 -8 0 -15 -9 -15 -20z m340 -225 l0 -165 -165 0 -165 0 0 165 0 165 165
0 165 0 0 -165z"/>
</g>
</svg>
