<?xml version="1.0" standalone="no"?>
<!DOCTYPE svg PUBLIC "-//W3C//DTD SVG 20010904//EN"
 "http://www.w3.org/TR/2001/REC-SVG-20010904/DTD/svg10.dtd">
<svg version="1.0" xmlns="http://www.w3.org/2000/svg"
 width="64.000000pt" height="64.000000pt" viewBox="0 0 64.000000 64.000000"
 preserveAspectRatio="xMidYMid meet">
<metadata>
Created by potrace 1.16, written by Peter Selinger 2001-2019
</metadata>
<g transform="translate(0.000000,64.000000) scale(0.100000,-0.100000)"
fill="#000000" stroke="none">
<path d="M160 315 l0 -165 165 0 165 0 0 165 0 165 -165 0 -165 0 0 -165z
m290 0 l0 -125 -125 0 -125 0 0 125 0 125 125 0 125 0 0 -125z"/>
<path d="M224 386 c-12 -32 0 -61 29 -64 19 -2 27 1 27 12 0 19 -16 21 -23 4
-3 -9 -7 -7 -12 5 -10 25 2 54 17 39 17 -17 28 -15 22 3 -8 19 -53 20 -60 1z"/>
<path d="M314 366 c-8 -8 -7 -15 0 -22 8 -8 15 -7 22 0 8 8 7 15 0 22 -8 8
-15 7 -22 0z"/>
<path d="M384 366 c-8 -8 -7 -15 0 -22 8 -8 15 -7 22 0 8 8 7 15 0 22 -8 8
-15 7 -22 0z"/>
</g>
</svg>
