<?xml version="1.0" standalone="no"?>
<!DOCTYPE svg PUBLIC "-//W3C//DTD SVG 20010904//EN"
 "http://www.w3.org/TR/2001/REC-SVG-20010904/DTD/svg10.dtd">
<svg version="1.0" xmlns="http://www.w3.org/2000/svg"
 width="64.000000pt" height="64.000000pt" viewBox="0 0 64.000000 64.000000"
 preserveAspectRatio="xMidYMid meet">
<metadata>
Created by potrace 1.16, written by Peter Selinger 2001-2019
</metadata>
<g transform="translate(0.000000,64.000000) scale(0.100000,-0.100000)"
fill="#000000" stroke="none">
<path d="M120 315 l0 -85 85 0 85 0 0 30 c0 20 5 30 15 30 10 0 15 -10 15 -30
l0 -30 85 0 85 0 0 85 0 85 -85 0 -85 0 0 -35 c0 -24 -5 -35 -15 -35 -10 0
-15 11 -15 35 l0 35 -85 0 -85 0 0 -85z m130 0 l0 -45 -45 0 -45 0 0 45 0 45
45 0 45 0 0 -45z m200 0 l0 -45 -45 0 -45 0 0 45 0 45 45 0 45 0 0 -45z"/>
</g>
</svg>
