<?xml version="1.0" standalone="no"?>
<!DOCTYPE svg PUBLIC "-//W3C//DTD SVG 20010904//EN"
 "http://www.w3.org/TR/2001/REC-SVG-20010904/DTD/svg10.dtd">
<svg version="1.0" xmlns="http://www.w3.org/2000/svg"
 width="64.000000pt" height="64.000000pt" viewBox="0 0 64.000000 64.000000"
 preserveAspectRatio="xMidYMid meet">
<metadata>
Created by potrace 1.16, written by Peter Selinger 2001-2019
</metadata>
<g transform="translate(0.000000,64.000000) scale(0.100000,-0.100000)"
fill="#000000" stroke="none">
<path d="M160 315 l0 -165 165 0 165 0 0 165 0 165 -165 0 -165 0 0 -165z
m150 70 l0 -55 -55 0 -55 0 0 55 0 55 55 0 55 0 0 -55z m140 0 l0 -55 -55 0
-55 0 0 55 0 55 55 0 55 0 0 -55z m-140 -140 l0 -55 -55 0 -55 0 0 55 0 55 55
0 55 0 0 -55z m140 0 l0 -55 -55 0 -55 0 0 55 0 55 55 0 55 0 0 -55z"/>
</g>
</svg>
