<?xml version="1.0" standalone="no"?>
<!DOCTYPE svg PUBLIC "-//W3C//DTD SVG 20010904//EN"
 "http://www.w3.org/TR/2001/REC-SVG-20010904/DTD/svg10.dtd">
<svg version="1.0" xmlns="http://www.w3.org/2000/svg"
 width="64.000000pt" height="64.000000pt" viewBox="0 0 64.000000 64.000000"
 preserveAspectRatio="xMidYMid meet">
<metadata>
Created by potrace 1.16, written by Peter Selinger 2001-2019
</metadata>
<g transform="translate(0.000000,64.000000) scale(0.100000,-0.100000)"
fill="#000000" stroke="none">
<path d="M437 540 c-14 -11 -29 -29 -32 -40 -6 -18 -16 -20 -126 -20 l-119 0
0 -117 -1 -118 -32 -20 c-61 -39 -59 -108 5 -144 36 -20 76 -6 103 36 l20 32
118 1 117 0 0 119 c0 110 2 120 20 126 27 9 60 53 60 82 0 14 -13 37 -29 54
-35 34 -68 37 -104 9z m81 -32 c22 -22 8 -78 -20 -78 -4 0 -8 11 -8 25 0 20
-5 25 -25 25 -14 0 -25 4 -25 8 0 15 24 32 45 32 12 0 26 -5 33 -12z m-91 -90
c21 -20 23 -30 23 -125 l0 -103 -102 0 c-91 0 -104 2 -125 22 -21 20 -23 30
-23 125 l0 103 102 0 c91 0 104 -2 125 -22z m-267 -243 c0 -20 5 -25 25 -25
27 0 32 -9 13 -28 -15 -15 -51 -15 -66 0 -15 15 -15 51 0 66 19 19 28 14 28
-13z"/>
</g>
</svg>
