<?xml version="1.0" standalone="no"?>
<!DOCTYPE svg PUBLIC "-//W3C//DTD SVG 20010904//EN"
 "http://www.w3.org/TR/2001/REC-SVG-20010904/DTD/svg10.dtd">
<svg version="1.0" xmlns="http://www.w3.org/2000/svg"
 width="64.000000pt" height="64.000000pt" viewBox="0 0 64.000000 64.000000"
 preserveAspectRatio="xMidYMid meet">
<metadata>
Created by potrace 1.16, written by Peter Selinger 2001-2019
</metadata>
<g transform="translate(0.000000,64.000000) scale(0.100000,-0.100000)"
fill="#000000" stroke="none">
<path d="M300 575 c0 -16 6 -25 15 -25 9 0 15 9 15 25 0 16 -6 25 -15 25 -9 0
-15 -9 -15 -25z"/>
<path d="M122 518 c-9 -11 -9 -19 1 -32 11 -15 15 -16 25 -4 9 11 9 19 -1 32
-11 15 -15 16 -25 4z"/>
<path d="M487 515 c-14 -10 -15 -15 -5 -23 9 -7 18 -7 31 3 14 10 15 15 5 23
-9 7 -18 7 -31 -3z"/>
<path d="M245 501 c-105 -49 -152 -167 -106 -266 76 -164 296 -164 372 0 76
163 -103 342 -266 266z m160 -44 c110 -63 110 -221 0 -284 -79 -45 -177 -17
-222 62 -81 143 79 303 222 222z"/>
<path d="M40 315 c0 -9 9 -15 25 -15 16 0 25 6 25 15 0 9 -9 15 -25 15 -16 0
-25 -6 -25 -15z"/>
<path d="M560 315 c0 -9 9 -15 25 -15 16 0 25 6 25 15 0 9 -9 15 -25 15 -16 0
-25 -6 -25 -15z"/>
<path d="M126 151 c-14 -15 -14 -20 -3 -30 11 -8 18 -7 31 8 14 15 14 20 3 30
-11 8 -18 7 -31 -8z"/>
<path d="M481 157 c-8 -11 -7 -18 8 -31 15 -14 20 -14 30 -3 8 11 7 18 -8 31
-15 14 -20 14 -30 3z"/>
<path d="M310 65 c0 -16 6 -25 15 -25 9 0 15 9 15 25 0 16 -6 25 -15 25 -9 0
-15 -9 -15 -25z"/>
</g>
</svg>
