<?xml version="1.0" standalone="no"?>
<!DOCTYPE svg PUBLIC "-//W3C//DTD SVG 20010904//EN"
 "http://www.w3.org/TR/2001/REC-SVG-20010904/DTD/svg10.dtd">
<svg version="1.0" xmlns="http://www.w3.org/2000/svg"
 width="64.000000pt" height="64.000000pt" viewBox="0 0 64.000000 64.000000"
 preserveAspectRatio="xMidYMid meet">
<metadata>
Created by potrace 1.16, written by Peter Selinger 2001-2019
</metadata>
<g transform="translate(0.000000,64.000000) scale(0.100000,-0.100000)"
fill="#000000" stroke="none">
<path d="M120 517 c0 -1 16 -75 35 -162 l35 -160 69 -68 68 -68 61 69 62 70
35 158 c19 87 35 160 35 161 0 2 -90 3 -200 3 -110 0 -200 -1 -200 -3z m345
-59 c-2 -13 -16 -74 -30 -136 -22 -101 -29 -118 -67 -163 l-42 -50 -48 48
c-46 46 -48 52 -73 163 -14 63 -28 125 -30 138 l-5 22 150 0 150 0 -5 -22z"/>
</g>
</svg>
